<svg xmlns="http://www.w3.org/2000/svg" width="256" height="256" viewBox="0 0 100 100"><rect width="100" height="100" rx="20" fill="#7d6ee7"></rect><path d="M15.70 66.07L11.95 67.71L11.95 33.93L15.70 32.76L22.57 32.76Q26.90 32.76 29.93 35.86L29.93 35.86Q33.00 38.97 33.00 43.33L33.00 43.33Q33.00 47.74 29.95 50.81L29.95 50.81Q28.54 52.24 26.86 53.01L26.86 53.01L33.28 66.07L29.50 67.71L23.06 53.90Q22.82 53.90 22.57 53.90L22.57 53.90L15.70 53.90L15.70 66.07ZM22.64 36.51L15.70 36.51L15.70 50.15L22.64 50.15Q25.43 50.15 27.42 48.16Q29.41 46.17 29.41 43.33L29.41 43.33Q29.41 40.54 27.42 38.53Q25.43 36.51 22.64 36.51L22.64 36.51ZM42.42 66.07L38.67 67.71L38.67 38.67Q38.67 36.04 40.54 34.17Q42.42 32.29 45.07 32.29L45.07 32.29Q47.81 32.29 49.59 34.12L49.59 34.12Q51.46 32.29 54.09 32.29L54.09 32.29Q56.90 32.29 58.66 34.12L58.66 34.12Q60.44 35.97 60.46 38.69L60.46 38.69L60.46 66.07L56.71 67.71L56.74 38.79Q56.74 37.61 55.96 36.79Q55.19 35.97 54.14 35.97L54.14 35.97Q53.04 35.97 52.26 36.79L52.26 36.79Q51.46 37.64 51.46 38.76L51.46 38.76L51.46 38.79L51.44 66.07L47.69 67.71L47.71 38.79Q47.71 37.61 46.94 36.79Q46.17 35.97 45.11 35.97L45.11 35.97Q44.04 35.97 43.24 36.79Q42.44 37.61 42.44 38.79L42.44 38.79L42.42 66.07ZM74.36 50.04L64.99 33.93L68.32 32.29L76.52 46.33L84.72 32.29L88.05 33.93L78.68 50.04L88.05 66.07L84.65 67.71L76.52 53.76L68.39 67.71L64.99 66.07L74.36 50.04Z" fill="#fff"></path></svg>